<?xml version="1.0" encoding="UTF-8"?>
<!DOCTYPE svg  PUBLIC '-//W3C//DTD SVG 1.1//EN'  'http://www.w3.org/Graphics/SVG/1.1/DTD/svg11.dtd'>
<svg enable-background="new 0 0 1241 877" version="1.1" viewBox="0 0 1241 877" xml:space="preserve" xmlns="http://www.w3.org/2000/svg">
<g stroke-width=".0938">
	<g fill="#fff" stroke="#fff">
		<path d="m939.47 51.79c26.16-3.48 54.69 5.25 71.93 25.82 2.27 2.44 3.77 6.43 7.58 6.71 2.86-0.52 5.27-2.29 7.91-3.42 27.47-12.72 62.06-9.45 86.08 9.22 12.88 10 22.48 25.28 22.63 41.93 0.35 4.33-2.16 8.68-0.46 12.89 0.91 2.38 3.39 3.52 5.77 3.85 14.78 2.58 29.04 9.06 40.07 19.33 8.28 7.68 14.63 17.71 16.93 28.85 2.73 12.78-0.3 26.48-7.6901 37.19-11.73 17.28-31.93 27.18-52.26 29.87-4.21 0.44-6.14 5.2-5.23 8.94 3.22 15.77-3.33 32.13-14.35 43.38-28.26 28.68-78.45 29.88-109.2 4.48-2.18-2.11-5.76-2.08-7.8 0.21-19.17 17.62-47.19 24.01-72.4 18.43-19.79-4.17-38.68-15.93-48.57-33.94-1.7599-2.9-2.48-6.42-4.78-8.97-1.84-1.83-4.5-1.22-6.71-0.63-20.02 5.49-42.07 3.19-60.53-6.3-13.4-6.89-24.99-18.01-30.79-32.07-4.78-11.6-4.73-25.08 0.1801-36.63 3.61-8.72 9.7599-16.2 16.97-22.2 2.03-1.62 3.67-3.99 3.49-6.7-0.02-2.98-2.04-5.34-3.46-7.78-6.29-10.15-8.89-22.66-6.42-34.42 2.86-14.18 12.3-26.39 24.03-34.54 17.46-12.21 39.83-16.41 60.73-13.11 3.04 0.87 6.13-1.15 7.01-4.09 1.48-4.52 2.98-9.08 5.46-13.18 11.1-19.09 32.41-30.38 53.88-33.12m46.83 46.43c0.19-1.85 0.35-3.7 0.48-5.56-1.91 0.7-2.01 2.87-2.83 4.41-2.58 6.3-5.89 12.51-10.9 17.23 0.93 0.49 1.87 0.97 2.84 1.43-0.62 0.4-1.23 0.8-1.83 1.19-2.45 2.01-5.15 3.69-8.02 5 2.45-1.58 4.85-3.24 7.27-4.88-0.35-0.6-0.69-1.2-1.01-1.8-6.63 4.89-15.41 5.87-23.34 4.49-11.07-2.09-21.09-7.9-29.69-15-2.63-2.07-4.75-4.74-7.61-6.51 0.9301 4.6 5.91 7.11 7.35 11.63-2.54-2.09-4.8-4.5-7.32-6.61-1.75-0.39-3.56-0.48-5.32-0.64 5.8 7.58 12.78 15.31 13.58 25.3-0.03 2.8-0.24 7.43-4.01 7.53-11.17 1.5-21.61-4.66-30.22-11.1-1.75-0.98-3.18-3.58-5.4399-2.76 2.43 3.24 5.27 6.15 7.62 9.46-2.72-1.85-5.26-3.95-7.88-5.92-0.38 0.19-1.13 0.58-1.5 0.77-0.73-0.27-2.17-0.8-2.9-1.07 1.34 3.23 4.19 5.43 6.2 8.22 7.41 9.51 14.37 19.98 16.78 31.98 0.4 1.1 0 3.16 1.51 3.32 1.47-1.4-0.46-3.95 0.12-5.79 2.45 8.01 2.88 17.75-2.21 24.82 1.57-5.49 3.41-11 3.11-16.81-0.29-0.27-0.87-0.8-1.16-1.07-0.1299 0.63-0.39 1.89-0.52 2.52 0.34 9.8-4.73 19.12-12.11 25.32-4.1201 3.1-8.81 5.32-13.46 7.5-1.43 0.49-1.78 2.23-3.09 2.85-1.31 0.93-3.23 1.19-3.86 2.85 0.63-0.03 1.89-0.08 2.52-0.11 0.38 1.74 1.9 2.53 3.53 1.68 2.94-0.68 5.92-1.18 8.89-1.78-3.03 2.07-7.63 2.37-9.46 5.79 11.61-2.72 24.55-3.97 35.39 2.07 6.95 3.14 9.03 11.15 11.48 17.65 1.17-0.3 0.79-2.16 1.29-3.07-0.22 1.51 0.6 2.82 1.27 4.08 1.8799 12.51 1.61 26.99-6.7401 37.26 2.22-4.76 4.41-9.56 5.62-14.7-0.75-0.11-1.83-0.35-1.9 0.72-2.28 9-6.86 17.62-14.07 23.61-1.58 1.38-3.49 2.41-4.74 4.13 1.26 0.63 2.49-0.36 3.71-0.66-0.35 0.47-1.04 1.39-1.39 1.85 0.46 0.24 1.38 0.72 1.84 0.97 3.23-0.96 6.02-2.99 9.18-4.18-2.19 3.1-5.86 4.64-8.13 7.64 1.7-0.09 3.28-0.85 4.8101-1.58 10.75-5.3 21.95-9.88 33.63-12.69 0.9901 1.69 1.95 3.43 2.46 5.35-0.73 0.36-2.18 1.06-2.91 1.42 0.73 0.91 1.5 1.81 2.3 2.7 0.08 0.93 0.17 1.86 0.28 2.79-0.44 0.23-1.32 0.69-1.75 0.91-0.81 1.67 2.07 2.76 1.69 4.56-0.66 1.09-1.51 2.05-2.25 3.07 0.72 0.69 1.45 1.37 2.2 2.06-0.42 4.43 3.81 6.85 6.7 9.38 3.1 1.95 5.13 5.04 7.61 7.64 5.3 0.53 10.75 0.63 16.03-0.19 4.53-5.96 10.97-10.06 15.69-15.8-0.55-1.06-1.3-1.99-1.82-3.04 0.63-1.15 1.56-2.11 2.31-3.2-0.34-1.48-2.13-2.2-2.14-3.79 0.69-1.01 1.52-1.93 2.22-2.95-0.67-1.11-1.47-2.11-2.1-3.22-0.03-1.54 2.08-2.16 1.95-3.67-0.69-1.34-1.37-2.66-2.06-3.98 5.54 1.91 10.77 4.76 15.31 8.46 3.51 2.98 5.63 7.16 8.11 10.95 0.57 0.22 1.71 0.64 2.28 0.86 1.31 1.78 2.52 3.64 3.77 5.48 0.52-0.84 0.79-1.74 0.19-2.63-1.36-6.08-6.01-10.65-7.79-16.57 2.92 3.06 4.79 6.91 7.28 10.31 1.13-1.6-0.3199-3.05-0.97-4.41-3.95-6.45-7.26-13.33-9.36-20.6-2.3-7 2.62-14.74 9.25-17.19 8.09-3.14 17.21-1.52 24.98 1.84 3.34 1.35 6.08 3.88 9.54 5-0.7201-1.21-1.51-2.36-2.38-3.44 0.14-0.59 0.4199-1.76 0.5699-2.35-2.51-2.36-4.7899-4.94-6.85-7.69 2.6899 1.45 5.14 3.29 7.9301 4.56-0.2101-1.75-1.67-2.8-2.7201-4.03-5.85-5.96-9.7999-13.73-11.32-21.92-0.7001-2.89 1.02-5.86 0.02-8.66l-0.37-0.56c-0.86-2.77 0.13-5.59 1.01-8.22 2.6599-7.74 7.75-14.79 14.79-19.11 3.6801-2.1 7.89-4.67 12.25-2.75 0-0.74-0.0499-1.47-0.0699-2.21 2.96-0.06 6.4 1.01 8.8099-1.34-2.09-2.31-5.36-1.92-8.1-2.68-1.03-1.11-2.46-0.77-3.76-0.72l0.51-0.93c-3.01 1.14-5.97-0.25-8.87-0.93-8.79-2.56-17.71-6.06-24.33-12.59-2.4-2.65-5.15-5.67-4.85-9.51 4.87 8.22 13.29 13.56 22.07 16.82 6.27 2.26 12.69 4.38 19.37 4.93l-2.59 0.74c3.25 2.15 7.27 0.66 10.88 0.49-0.11-0.28-0.3301-0.83-0.4401-1.11-12.46-2.13-25.25-4.57-36.24-11.18-5.52-3.39-10.63-8.16-12.69-14.46 1.85-10.97 10.91-19.51 20.68-24.04 1.5901-1.04 4.16-1.53 4.2001-3.86-6.14 2.06-11.22 6.4-17.5 8.13 2.9099-3.12 6.49-5.51 10.34-7.32 2.01-1.2 4.48-1.95 5.91-3.9-0.6901-3.23-3.9801-0.53-5.8501-0.1 2.2201-2.01 5.2401-3.14 6.91-5.71-4.79 0.8-8.49 4.15-12.84 6.01-5.27 2.28-10.75 4.21-16.44 5.09 3.6 2.21 7.4899-0.44 11.17-0.99-7.64 2.93-15.6 5.59-23.87 5.56-8.11-0.26-16.08-6.51-16.76-14.88 1.94 3.23 4.04 6.49 7.25 8.63 6.18 4.3 14.16 4.53 21.38 3.59 1.07 0.04 0.84-1.11 0.86-1.82-9.21 1.89-20.83 0.53-26.2-8.19-3.8701-5.41-3.7401-12.28-2.35-18.5-2.91-2.97-0.26-7.07-0.57-10.64-2.7997 2.26-3.5797 6.19-5.3097 9.27m80.06 90.43c2.98-0.58 6.03-0.67 9.0601-0.81-1.7301-3-6.1901-1.46-8.92-2.76-0.0401 1.19-0.1701 2.38-0.1401 3.57m-28.84 27.31c0.3099 0.04 0.9299 0.14 1.24 0.19 3.41-12.98 13.46-25.16 27.27-27.26-0.8-0.49-1.5901-0.97-2.37-1.44-13.16 3.7-23.54 15.13-26.14 28.51m-118.06 22.18c1.21 6.67 1.42 13.78-0.54 20.32 0.72-0.1 1.46-0.19 2.22-0.27 1.08-7.42 1.13-14.89-0.1-22.3-0.54 0.74-1.07 1.49-1.58 2.25z"/>
		<path d="m986.26 105.21c1.65 0.18 1.55 3.5-0.08 3.66-1.33-0.58-1.14-3.06 0.08-3.66z"/>
		<path d="m920 107.69c9.53 6.74 20.08 12.93 31.95 14.02 4.08 0.58 8.16-0.27 12.24-0.4-4.81 1.8-9.96 3.17-15.13 2.74-8.99-1.21-17.34-5.3-24.77-10.35-2.19-1.35-3-3.94-4.29-6.01z"/>
		<path d="m962.92 126.26c9.37-2.36 16.34-9.6 21.71-17.26-0.22 1.29 0.04 2.74-0.72 3.88-4.65 7.58-12 13.95-20.88 15.74-0.94 0.39-3.3701-0.1-2.95 1.24 1.26 1.29 3.33 0.18 4.87-0.03 8.21-2.16 14.86-8.04 19.65-14.87 1.65 1.48 1.57 4.15 2.76 6.01 1.98 4.36 6.2 6.95 9.2 10.54 6.48 6.63 16.61 6.73 25.19 5.48-3.39 5.55-4.83 12.44-2.92 18.77l-1.37 0.71c0.97-0.4 2.06-0.65 2.94-1.31-1.59-4.74-0.86-9.94 1.22-14.4 0.88-1.8 1.58-3.95 3.51-4.92-2.49 5.04-5.12 10.33-4.62 16.14-0.32 2.58 1.29 4.67 1.28 7.22-0.16-0.36-0.48-1.06-0.65-1.41-0.59-1.14-1.86-0.41-2.69-0.12 1.7 0.56 2.1 2.47 3.11 3.75 2.1 3.47 5.42 5.91 8.1299 8.88 6.04 6.58 14.47 10.31 22.84 12.99-4.4301 3.62-9.4501 6.67-12.86 11.35-10.64 13.42-11.62 32.99-3.78 48-7.89-1.85-17.17-1.82-23.69 3.6-2.83 2.53-6.5 4.24-8.36 7.71-3.84 6.24-3.09 13.96-1.48 20.78-3.05-2.01-6.3-3.66-9.62-5.15 2.38-3.34 4.97-6.8 5.59-10.98 0.63-4.86 0.5-9.86 2.07-14.57 4.22-11.94 11.55-22.37 16.84-33.82 4.14-8.42 6.06-17.89 5.63-27.25-0.65-17-9.73-33.48-23.88-42.96-12.16-8.03-27.52-11.49-41.86-8.39-18.39 3.27-34.9 16.74-41.03 34.48 5.02-11.33 13.67-21.28 24.92-26.71 7.6-4.21 16.28-6.59 25.01-6.36 5.72-0.33 11.53-0.17 17.02 1.7 4.18 0.58 7.39 3.47 11.22 4.97 5.57 2.73 10.5 6.76 14.13 11.81 5.91 7.38 11.34 15.84 11.99 25.54 0.23 5.4 0.43 10.9-0.73 16.21-1.55 13.24-9.17 24.57-14.99 36.22-3.55 7.48-8.1 14.97-8.04 23.52 0.16 4.79-1.3 10.57-5.67 13.14-3.9 1.15-8.11 1.1-12.12 0.65-0.02-4.16-0.4301-8.29-0.59-12.44-0.25-0.02-0.74-0.07-0.99-0.1-0.27 0.6-0.83 1.81-1.11 2.41 0.09-1.73 0.27-3.44 0.34-5.17 2.72-0.5 1.41-4.52 1.87-6.59-0.88-4.63-0.53-9.31-0.01-13.96 0.41-1.63-0.94-2.73-1.73-3.92 0.06-2.08 0.75-4.06 1.43-5.99 3.41-8.96 7.17-17.82 9.83-27.04 1.08-2.67 2.82-5.04 3.48-7.89-4.16-0.97-8.49-0.85-12.65 0.04-0.39-1.66-0.33-3.35-0.05-5.01-0.36 1.27-0.7599 2.53-1.15 3.8l0.85-0.19-0.19 1.95c-5.82-0.16-11.34-2.87-17.22-2.26-1.57 0.21-3.1-0.13-4.58-0.55-4.74 0.72-9.65 0.7-14.15 2.58 1.36 3.3 3.67 6.14 4.7 9.59 3.62 10.83 10.33 20.58 12.43 31.9-0.49 0.37-1.47 1.12-1.96 1.49-0.11 2.54 0.06 5.07 0.43 7.58 0.75 5.32-0.03 10.68 0.08 16.01 0.08 4.58 0.28 9.17 0.05 13.75-4.61-0.02-9.31 0.38-13.79-1.03-3.92-3.75-5.29-9.5-5.5099-14.78-0.59-9.37-6.65-16.99-10.77-25.07-3.64-7.91-8.87-15.06-11.53-23.41-2.5699-7.19-3.24-14.87-3.25-22.45 0.11-4.5 1.7401-8.74 2.64-13.11-0.66 1.59-1.22 3.21-1.88 4.79-2.29 11.35-2.04 23.39 2.36 34.23 5.05 12.11 12.07 23.26 17.85 35.02 2.3 4.61 2.9 9.78 3.31 14.85 0.3 4.74 2.75 8.95 5.51 12.68-6.98 1.61-13.66 4.21-20.41 6.54 1.16-3.29 3.82-6.9 1.77-10.4-1.53 4.33-1.69 10.65-6.48 12.77 4.09-7.24 7-15.16 7.89-23.46-0.08 2.31-0.31 4.61-0.43 6.92 0.49-0.27 1.48-0.82 1.97-1.1 0.23-8.98-0.35-17.96-1.28-26.9-0.78 1.25-1.41 2.59-1.57 4.06 0.04-1.36-0.5-2.57-0.9-3.82-1.94-7.22-6.45-13.61-12.23-18.28-6.2-4.88-14.09-7.26-21.92-7.53 1.23-0.77 2.3-1.87 3.72-2.3 9.17 0.48 18.09 4.99 23.79 12.22 3.56 4.31 5.59 9.61 7.17 14.91 0.44 2.15 3.24-1.45 1.03-2.06-2.2-7.7-6.54-14.94-12.99-19.8-5.15-3.83-11.34-6.15-17.72-6.8 4.66-4.27 8.53-9.52 10.54-15.56 0.86-1.67 0.16-3.56-0.66-5.08-0.75 7.66-5.42 14.32-10.95 19.39-1 1.32-2.73 0.97-4.13 1.07 0.06 0.57 0.1801 1.71 0.2401 2.28-0.59 0.37-1.76 1.1-2.35 1.47-1.41-0.05-2.8-0.11-4.19-0.19 1.71-1.21 3.52-2.44 5.75-2.1 0.52-3.37 4.15-4.59 6.11-7.02 4.48-4.27 7.14-9.87 9.53-15.46 0.02-2.1 0.14-4.2 0.26-6.3 0.63 2.18-1.02 5.68 1.33 6.93 1.24-4.87-0.08-9.91-0.03-14.84-0.01-9.07-3.72-17.59-7.93-25.44 6.02 2.56 12.64 4.66 19.24 3.41 4.15-0.7 7.98-3.71 9.19-7.82 1.06-3.31 0.22-6.77-0.04-10.14-0.01-2.57 0.02-5.14-0.31-7.7 9.35 6.34 20.38 10.87 31.82 10.71l0.42-0.3 0.05-0.66-0.24-0.73c-10.36 0.3-20.58-3.39-29.08-9.15 10.34 5.37 22.42 9.23 34.05 6.03m-38.2 135.6c-0.43 0.9-0.22 3.69 1.29 3.15 0.2-0.93 0.59-2.79 0.79-3.73-0.76-0.77-1.45-0.58-2.08 0.58z"/>
		<path d="m888.51 128.7c-0.49-0.62-0.49-0.62 0 0z"/>
		<path d="m888.51 128.7c5.34 2.82 10.52 6.13 16.46 7.57 3.65 1.09 7.48 1 11.25 1.09-3.8199 1.8-8.25 2.95-12.36 1.47-5.86-1.89-12.7-3.95-15.35-10.13z"/>
		<path d="m998.85 131.36c6.9 3.27 14.86 3.27 22.2 1.65 2.12-0.52 4.42-0.83 6.46 0.21l-3.67-0.22 1.7299 2.33c-0.5199-0.59-1.0299-1.16-1.5399-1.73-0.9301 1.87-3.15 1.8-4.88 2.12-6.93 0.8-14.77 0.41-20.3-4.36z"/>
		<path d="m1024.1 147.4c0.86-5.76 3.78-13 10.21-14.16-4.21 4.13-7.2799 9.1-10.21 14.16z"/>
		<path d="m918.01 141.49c3.6-1.26 5.57-4.65 7.4-7.75 0.09 4.82-3.1 9.6-7.96 10.56-7.52 1.5-15.56-0.85-21.82-5.07 7.05 2.58 15.01 5.3 22.38 2.26z"/>
		<path d="m891.89 139.2c1.57 0.96 3.39 1.81 4.15 3.64 3.68 6.59 7.03 13.65 7.79 21.25-2.21-9.04-6.93-17.14-11.94-24.89z"/>
		<path d="m622.8 158.76c11.26-8.76 28.33-7.71 39.2 1.2 2.55 2.08 5.42 0.01 7.5-1.65 11.54-6.68 27.2-4.95 37.16 3.86 2.35 2.38 4.71 5 5.6 8.31 0.54 2.01 1.12 4.03 2.1 5.89 9.53 0.36 19.51 3.05 26.19 10.25 3.52 4.1 6.02 10.13 3.46 15.34-2.5 6.44-9.05 10.03-15.4 11.73-2.55 2.65-1.31 6.4 0.09 9.29 2.58 6.71-2.05 13.71-7.58 17.28-8.2 4.88-18.66 5.5-27.55 2.19-2.28-0.77-4.42-2.33-6.93-2.01-3.66 3.31-6.76 7.54-11.62 9.2-12.15 4.64-27.64 1.75-35.91-8.73-1.46-1.94-4.17-1.67-6.1-0.67-10.38 4.36-22.78 2.25-31.75-4.34-1.48-1.27-2.89-2.61-4.19-4.05-2.46-3.45-4.46-7.64-3.58-11.98 0.49-4.58 5.96-7.88 3.65-12.78-2.86-3.09-6.32-5.96-7.49-10.19-2.41-6.83 2.15-14.23 8.18-17.42 4.93-3.22 10.91-3.79 16.62-4.19 2.81-0.64 2.28-4.05 2.77-6.2 0.28-4.08 2.69-7.6 5.58-10.33z"/>
		<path d="m899.1 160.29c3.33 0.28-1.7 2.81 0 0z"/>
		<path d="m1035.4 173.28c6.3999 3.94 13.67 5.93 20.68 8.45-2.86 0.77-5.5499-0.84-8.1699-1.72-4.4901-1.62-8.5701-4.11-12.67-6.51l0.16-0.22z"/>
		<path d="m944.48 185.98c3.82-0.38 7.64-0.79 11.47-1.16 2.23 1.2 4.71-0.11 7.09 0.1 4.9 0.19 9.83 1.28 14.37 3.14-1.62 5.56-3.66 11.1-4.15 16.91 0.83-4.41 1.72-8.87 3.66-12.95 0.82-1.36 0.61-2.98 0.61-4.48 3.92-1.41 8.17-2.11 12.27-1-3.96 11.25-8.13 22.44-12.57 33.51-1.08 2.68-1.67 5.53-2.03 8.38-0.8-0.21-2.41-0.65-3.21-0.87-0.84-6.13-0.84-12.39-0.28-18.54 1.17-0.74 3.88-0.58 3.2-2.63-2.2-1.05-4.6299-0.5-6.94-0.52-2.48 0.13-5.15-0.46-7.31 1.1 0.23 2.01 2.44 1.8 3.8701 2.41 0.16 5.88 0.3 11.81-0.33 17.68-1.23 0.44-2.44 0.9-3.64 1.37-0.79-6.9-4.24-13.04-6.91-19.33-2.95-6.4-5.63-12.92-8.41-19.39-0.5301-1.19-0.7801-2.44-0.7601-3.73z"/>
		<path d="m966.14 209.51c1.14-0.05 2.29-0.1 3.46-0.15-0.0699 5.35-0.03 10.71-0.0099 16.07-1.13 0.01-2.25 0.02-3.36 0.04-0.0501-5.32-0.0801-10.64-0.0901-15.96z"/>
		<path d="m880.42 212.89c1.5-0.88 2.94-1.89 4.56-2.56 3.7-0.4 7.4 0.35 11.1 0.48 0.14 0.46 0.41 1.39 0.54 1.86-5.39-0.63-10.83-0.56-16.2 0.22z"/>
		<path d="m897.95 211.43c3.15 1.15 6.4 2.26 9.12 4.31-3.51-1.03-6.89-2.68-10.61-2.78 0.48-0.51 0.98-1.03 1.49-1.53z"/>
		<path d="m520.52 224.66c4.5-1.14 9.96 0.23 12.55 4.31 1.44 1.75 2.52 4.27 4.98 4.73 2.73-0.37 5.15-2.1 8-1.96 8.14-0.37 14.55 8.52 12.52 16.21-0.74 2.32 1.84 3.4 3.52 4.14 5.15 1.88 8.7 7.32 8.4 12.78-0.33 5.1-4.61 9.53-9.6 10.34-1.64 0.35-3.63 0.43-4.57 2.07-1.59 2.8-0.24 6.31-2 9.07-2.6 5.57-9.83 8.07-15.42 5.78-2.7-1.01-4.42-3.51-6.89-4.87-2.18-0.96-3.86 1.24-5.56 2.2-4.98 3.69-12.67 2.3-16.35-2.58-2.07-2.18-1.95-5.68-4.33-7.6-2.48-1.1-5.17 0.29-7.74-0.21-7.47-1.02-13.06-9.78-9.85-16.84 1.14-3.11 4.63-4.79 5.14-8.18-0.52-2.66-1.82-5.21-1.61-7.98 0.1-6.55 6.89-11.88 13.29-10.76 2.23 0.32 5.49 1.04 6.46-1.76 1.49-4.16 4.66-7.77 9.06-8.89z"/>
		<path d="m960.66 230.14c4.76-1.19 9.9901-1.54 14.47 0.84 0.83 2.69 1.01 5.52 0.83 8.33-1.12-0.03-2.21 0.03-3.29 0.18-0.46-0.57-0.89-1.16-1.28-1.76-0.62-2.56-3.79-5.52-6.4-3.6-0.97 1.69-0.93 3.87-2.45 5.25l0.44 2.32c-0.72 0.09-2.16 0.27-2.88 0.37l1.34-0.97c-2.64-3.06-1.07-7.36-0.78-10.96z"/>
		<path d="m1038.1 233.81c2.23 4.24 4.47 8.47 7.1899 12.43-4.9699-1.77-6.0799-7.89-7.1899-12.43z"/>
		<path d="m966.16 235.31c2.61-3.17 5.25 2.53 2.45 4.22-2.25 1.86-4.72-2.89-2.45-4.22z"/>
		<path d="m970.8 267.01c-0.09-8.54-0.49-17.18 0.7-25.64 1.54 0.92 4.2 1.15 3.74 3.63 0.39 7.23 0.25 14.48 0.59 21.72-1.66 0.41-3.37 0.84-5.03 0.29z"/>
		<path d="m960.93 244.16c0.72-0.06 2.16-0.2 2.88-0.27 0.74 4.27 0.08 8.65 0.44 12.97 0.58 0.69 1.17 1.39 1.77 2.09-0.19-4.76-0.1-9.53-0.1-14.29 0.76-0.09 2.29-0.26 3.05-0.35-0.58 7.97 1.04 16.1-0.75 23.95-0.6899 0.16-1.37 0.32-2.04 0.48 0.53-0.39 1.57-1.16 2.09-1.54-3.48-0.64-1.93-4.71-2.04-7.07-0.48-0.25-1.43-0.76-1.91-1.02-0.09 2.55-0.09 5.12-0.21 7.68-0.67 0.01-2.02 0.04-2.7 0.05-0.24-1.21-0.5-2.41-0.71-3.61 0.2-6.36-0.43-12.73 0.23-19.07z"/>
		<path d="m1015.6 245.72c6.48-3.35 14.25-3.02 21.12-1.17 1.12 1.07 1.86 2.45 2.77 3.71-7.66-2.52-15.87-3.52-23.89-2.54z"/>
		<path d="m1017.8 249.74c8.9-2.52 18.58-0.24 26.48 4.22-9.0399-2.73-19.28-5.38-28.24-0.88-4.1 1.77-6.46 5.62-8.91 9.11 0.24-6 5.04-10.93 10.67-12.45z"/>
		<path d="m1004.7 276.36c-2.63-7.83-3.84-18.6 3.25-24.48-1.66 3.26-3.7401 6.43-4.13 10.16-0.95 4.79 0.47 9.56 0.88 14.32z"/>
		<path d="m990.97 270.59c4.21 1.8 8.44 3.75 12.01 6.67 0.82 1.41 1.26 3 1.89 4.51-4.12-3.35-8.75-6.06-13.66-8.07-0.06-0.78-0.18-2.33-0.24-3.11z"/>
		<path d="m974.37 273.65c2.8 0.09 5.61 0.18 8.42 0.33 0.17 1.25 0.39 2.51 0.6 3.76-3 0.83-6.13 0.97-9.22 0.96 0.04-1.69 0.1-3.37 0.2-5.05z"/>
		<path d="m918.38 283.54c8.35-3.63 17.02-6.48 25.86-8.68-0.1 0.66-0.31 1.99-0.41 2.66-10.53 2.45-20.61 6.48-30.44 10.92 1.57-1.7 2.79-3.93 4.99-4.9z"/>
		<path d="m972.63 282.73c2.06-2.48 5.8-0.88 8.57-1.04-2.73 1.06-5.7 1.12-8.57 1.04z"/>
		<path d="m971.94 288.72c3.09-0.5 6.24-0.65 9.36-0.29-2.88 1.22-6.59 2.16-9.36 0.29z"/>
		<path d="m971.84 295.76c3.14-0.63 6.36-0.77 9.56-0.49-2.85 1.6-6.58 1.71-9.56 0.49z"/>
		<path d="m975.15 303.03c0.48-1.52 3.21-1.05 4.45-0.56-0.53 1.35-3.31 1.26-4.45 0.56z"/>
	</g>
	<g stroke="#000">
		<path d="m905.9 48.81c33.53-18.58 78.94-14.25 107.06 12.29 2.69 2.5 5.16 5.23 7.43 8.12 27.06-13.1 60.28-12.8 86.77 1.6 13.59 7.32 25.33 18.44 32.41 32.25 5.3601 10.09 7.67 21.63 7.2301 33.01 19.2 4.34 37.42 14.66 49.48 30.44 9.75 12.52 14.93 28.65 13.69 44.53-1.1899 18.3-10.95 35.37-24.96 46.94-11.49 9.67-25.67 15.8-40.34 18.68 1.0199 15.26-3.8201 30.7-13.04 42.87-13.53 18.22-35.24 29.31-57.52 32.14-23.95 3.17-49.31-2.69-68.61-17.44-11.12 9.13-24.36 15.62-38.43 18.66-18.97 4.09-39.22 2.21-57.09-5.39-17.4-7.34-32.47-20.63-40.75-37.74-20.31 5.02-42.26 2.99-61.31-5.65-15.51-7.03-29.16-18.71-37.25-33.81-7.55-13.67-9.78-30.15-6.17-45.33 2.99-13.15 10.49-24.93 20.18-34.17-7.05-12.6-10.14-27.51-7.64-41.81 2.87-18.2 14.18-34.35 29.04-44.92 18.63-13.42 42.51-18.65 65.17-15.93 6.1401-16.86 18.97-30.82 34.65-39.34m33.57 2.98c-21.47 2.74-42.78 14.03-53.88 33.12-2.48 4.1-3.98 8.66-5.46 13.18-0.88 2.94-3.97 4.96-7.01 4.09-20.9-3.3-43.27 0.9-60.73 13.11-11.73 8.15-21.17 20.36-24.03 34.54-2.47 11.76 0.13 24.27 6.42 34.42 1.42 2.44 3.4399 4.8 3.46 7.78 0.18 2.71-1.46 5.08-3.49 6.7-7.21 6-13.36 13.48-16.97 22.2-4.91 11.55-4.96 25.03-0.1801 36.63 5.8 14.06 17.39 25.18 30.79 32.07 18.46 9.49 40.51 11.79 60.53 6.3 2.21-0.59 4.87-1.2 6.71 0.63 2.3 2.55 3.02 6.07 4.78 8.97 9.89 18.01 28.78 29.77 48.57 33.94 25.21 5.58 53.23-0.81 72.4-18.43 2.04-2.29 5.62-2.32 7.8-0.21 30.75 25.4 80.94 24.2 109.2-4.48 11.02-11.25 17.57-27.61 14.35-43.38-0.91-3.74 1.02-8.5 5.23-8.94 20.33-2.69 40.53-12.59 52.26-29.87 7.39-10.71 10.42-24.41 7.6901-37.19-2.3-11.14-8.65-21.17-16.93-28.85-11.03-10.27-25.29-16.75-40.07-19.33-2.38-0.33-4.86-1.47-5.77-3.85-1.7001-4.21 0.8099-8.56 0.46-12.89-0.15-16.65-9.75-31.93-22.63-41.93-24.02-18.67-58.61-21.94-86.08-9.22-2.64 1.13-5.05 2.9-7.91 3.42-3.81-0.28-5.31-4.27-7.58-6.71-17.24-20.57-45.77-29.3-71.93-25.82z"/>
		<path d="m986.3 98.22c1.73-3.08 2.51-7.01 5.31-9.27 0.31 3.57-2.34 7.67 0.57 10.64-1.39 6.22-1.52 13.09 2.35 18.5 5.37 8.72 16.99 10.08 26.2 8.19-0.02 0.71 0.21 1.86-0.86 1.82-7.22 0.94-15.2 0.71-21.38-3.59-3.21-2.14-5.31-5.4-7.25-8.63 0.68 8.37 8.65 14.62 16.76 14.88 8.27 0.03 16.23-2.63 23.87-5.56-3.6801 0.55-7.5699 3.2-11.17 0.99 5.69-0.88 11.17-2.81 16.44-5.09 4.35-1.86 8.0499-5.21 12.84-6.01-1.6699 2.57-4.6899 3.7-6.91 5.71 1.87-0.43 5.16-3.13 5.8501 0.1-1.4301 1.95-3.9 2.7-5.91 3.9-3.85 1.81-7.4301 4.2-10.34 7.32 6.2799-1.73 11.36-6.07 17.5-8.13-0.04 2.33-2.61 2.82-4.2001 3.86-9.77 4.53-18.83 13.07-20.68 24.04 2.0599 6.3 7.1699 11.07 12.69 14.46 10.99 6.61 23.78 9.05 36.24 11.18 0.11 0.28 0.3301 0.83 0.4401 1.11-3.61 0.17-7.63 1.66-10.88-0.49l2.59-0.74c-6.6801-0.55-13.1-2.67-19.37-4.93-8.78-3.26-17.2-8.6-22.07-16.82-0.3 3.84 2.45 6.86 4.85 9.51 6.62 6.53 15.54 10.03 24.33 12.59 2.9 0.68 5.86 2.07 8.87 0.93l-0.51 0.93c1.3-0.05 2.73-0.39 3.76 0.72 2.74 0.76 6.01 0.37 8.1 2.68-2.4099 2.35-5.85 1.28-8.8099 1.34 0.02 0.74 0.0699 1.47 0.0699 2.21-4.36-1.92-8.5699 0.65-12.25 2.75-7.0399 4.32-12.13 11.37-14.79 19.11-0.88 2.63-1.87 5.45-1.01 8.22l0.37 0.56c1 2.8-0.7201 5.77-0.02 8.66 1.52 8.19 5.47 15.96 11.32 21.92 1.05 1.23 2.51 2.28 2.7201 4.03-2.79-1.27-5.2401-3.11-7.9301-4.56 2.0601 2.75 4.34 5.33 6.85 7.69-0.15 0.59-0.4299 1.76-0.5699 2.35 0.87 1.08 1.6599 2.23 2.38 3.44-3.4601-1.12-6.2001-3.65-9.54-5-7.77-3.36-16.89-4.98-24.98-1.84-6.63 2.45-11.55 10.19-9.25 17.19 2.1 7.27 5.41 14.15 9.36 20.6 0.65 1.36 2.1 2.81 0.97 4.41-2.49-3.4-4.36-7.25-7.28-10.31 1.78 5.92 6.43 10.49 7.79 16.57 0.6 0.89 0.33 1.79-0.19 2.63-1.25-1.84-2.46-3.7-3.77-5.48-0.57-0.22-1.71-0.64-2.28-0.86-2.48-3.79-4.6-7.97-8.11-10.95-4.54-3.7-9.77-6.55-15.31-8.46 0.69 1.32 1.37 2.64 2.06 3.98 0.13 1.51-1.98 2.13-1.95 3.67 0.63 1.11 1.43 2.11 2.1 3.22-0.7 1.02-1.53 1.94-2.22 2.95 0.01 1.59 1.8 2.31 2.14 3.79-0.75 1.09-1.68 2.05-2.31 3.2 0.52 1.05 1.27 1.98 1.82 3.04-4.72 5.74-11.16 9.84-15.69 15.8-5.28 0.82-10.73 0.72-16.03 0.19-2.48-2.6-4.51-5.69-7.61-7.64-2.89-2.53-7.12-4.95-6.7-9.38-0.75-0.69-1.48-1.37-2.2-2.06 0.74-1.02 1.59-1.98 2.25-3.07 0.38-1.8-2.5-2.89-1.69-4.56 0.43-0.22 1.31-0.68 1.75-0.91-0.11-0.93-0.2-1.86-0.28-2.79-0.8-0.89-1.57-1.79-2.3-2.7 0.73-0.36 2.18-1.06 2.91-1.42-0.51-1.92-1.47-3.66-2.46-5.35-11.68 2.81-22.88 7.39-33.63 12.69-1.53 0.73-3.11 1.49-4.8101 1.58 2.27-3 5.94-4.54 8.13-7.64-3.16 1.19-5.95 3.22-9.18 4.18-0.46-0.25-1.38-0.73-1.84-0.97 0.35-0.46 1.04-1.38 1.39-1.85-1.22 0.3-2.45 1.29-3.71 0.66 1.25-1.72 3.16-2.75 4.74-4.13 7.21-5.99 11.79-14.61 14.07-23.61 0.07-1.07 1.15-0.83 1.9-0.72-1.21 5.14-3.4 9.94-5.62 14.7 8.35-10.27 8.62-24.75 6.7401-37.26-0.67-1.26-1.4901-2.57-1.27-4.08-0.5 0.91-0.12 2.77-1.29 3.07-2.45-6.5-4.53-14.51-11.48-17.65-10.84-6.04-23.78-4.79-35.39-2.07 1.83-3.42 6.4301-3.72 9.46-5.79-2.97 0.6-5.95 1.1-8.89 1.78-1.63 0.85-3.15 0.06-3.53-1.68-0.63 0.03-1.89 0.08-2.52 0.11 0.63-1.66 2.55-1.92 3.86-2.85 1.31-0.62 1.66-2.36 3.09-2.85 4.65-2.18 9.34-4.4 13.46-7.5 7.3799-6.2 12.45-15.52 12.11-25.32l0.52-2.52c0.29 0.27 0.8701 0.8 1.16 1.07 0.3 5.81-1.54 11.32-3.11 16.81 5.09-7.07 4.66-16.81 2.21-24.82-0.58 1.84 1.35 4.39-0.12 5.79-1.51-0.16-1.11-2.22-1.51-3.32-2.41-12-9.37-22.47-16.78-31.98-2.01-2.79-4.86-4.99-6.2-8.22 0.73 0.27 2.17 0.8 2.9 1.07 0.37-0.19 1.12-0.58 1.5-0.77 2.62 1.97 5.16 4.07 7.88 5.92-2.35-3.31-5.19-6.22-7.62-9.46 2.2599-0.82 3.6899 1.78 5.4399 2.76 8.61 6.44 19.05 12.6 30.22 11.1 3.77-0.1 3.98-4.73 4.01-7.53-0.8-9.99-7.78-17.72-13.58-25.3 1.76 0.16 3.57 0.25 5.32 0.64 2.52 2.11 4.78 4.52 7.32 6.61-1.44-4.52-6.42-7.03-7.35-11.63 2.86 1.77 4.98 4.44 7.61 6.51 8.6 7.1 18.62 12.91 29.69 15 7.93 1.38 16.71 0.4 23.34-4.49 0.32 0.6 0.66 1.2 1.01 1.8-2.42 1.64-4.82 3.3-7.27 4.88 2.87-1.31 5.57-2.99 8.02-5 0.6-0.39 1.21-0.79 1.83-1.19-0.97-0.46-1.91-0.94-2.84-1.43 5.01-4.72 8.32-10.93 10.9-17.23 0.82-1.54 0.92-3.71 2.83-4.41-0.1303 1.86-0.2903 3.71-0.4803 5.56m-0.04 6.99c-1.22 0.6-1.41 3.08-0.08 3.66 1.63-0.16 1.73-3.48 0.08-3.66m-66.26 2.48c1.29 2.07 2.1 4.66 4.29 6.01 7.43 5.05 15.78 9.14 24.77 10.35 5.17 0.43 10.32-0.94 15.13-2.74-4.08 0.13-8.16 0.98-12.24 0.4-11.87-1.09-22.42-7.28-31.95-14.02m42.92 18.57c-11.63 3.2-23.71-0.66-34.05-6.03 8.5 5.76 18.72 9.45 29.08 9.15l0.24 0.73-0.05 0.66-0.42 0.3c-11.44 0.16-22.47-4.37-31.82-10.71 0.33 2.56 0.3 5.13 0.31 7.7 0.2599 3.37 1.1 6.83 0.04 10.14-1.21 4.11-5.04 7.12-9.19 7.82-6.6 1.25-13.22-0.85-19.24-3.41 4.21 7.85 7.92 16.37 7.93 25.44-0.05 4.93 1.27 9.97 0.03 14.84-2.35-1.25-0.7-4.75-1.33-6.93-0.12 2.1-0.24 4.2-0.26 6.3-2.39 5.59-5.05 11.19-9.53 15.46-1.96 2.43-5.59 3.65-6.11 7.02-2.23-0.34-4.04 0.89-5.75 2.1 1.39 0.08 2.78 0.14 4.19 0.19 0.59-0.37 1.76-1.1 2.35-1.47-0.06-0.57-0.1801-1.71-0.2401-2.28 1.4-0.1 3.13 0.25 4.13-1.07 5.53-5.07 10.2-11.73 10.95-19.39 0.82 1.52 1.52 3.41 0.66 5.08-2.01 6.04-5.88 11.29-10.54 15.56 6.38 0.65 12.57 2.97 17.72 6.8 6.45 4.86 10.79 12.1 12.99 19.8 2.21 0.61-0.59 4.21-1.03 2.06-1.58-5.3-3.61-10.6-7.17-14.91-5.7-7.23-14.62-11.74-23.79-12.22-1.42 0.43-2.49 1.53-3.72 2.3 7.83 0.27 15.72 2.65 21.92 7.53 5.78 4.67 10.29 11.06 12.23 18.28 0.4 1.25 0.94 2.46 0.9 3.82 0.16-1.47 0.79-2.81 1.57-4.06 0.93 8.94 1.51 17.92 1.28 26.9-0.49 0.28-1.48 0.83-1.97 1.1 0.12-2.31 0.35-4.61 0.43-6.92-0.89 8.3-3.8 16.22-7.89 23.46 4.79-2.12 4.95-8.44 6.48-12.77 2.05 3.5-0.61 7.11-1.77 10.4 6.75-2.33 13.43-4.93 20.41-6.54-2.76-3.73-5.21-7.94-5.51-12.68-0.41-5.07-1.01-10.24-3.31-14.85-5.78-11.76-12.8-22.91-17.85-35.02-4.4-10.84-4.65-22.88-2.36-34.23 0.66-1.58 1.22-3.2 1.88-4.79-0.9 4.37-2.53 8.61-2.64 13.11 0.01 7.58 0.6801 15.26 3.25 22.45 2.66 8.35 7.89 15.5 11.53 23.41 4.12 8.08 10.18 15.7 10.77 25.07 0.22 5.28 1.59 11.03 5.5099 14.78 4.48 1.41 9.1801 1.01 13.79 1.03 0.23-4.58 0.03-9.17-0.05-13.75-0.11-5.33 0.67-10.69-0.08-16.01-0.37-2.51-0.54-5.04-0.43-7.58 0.49-0.37 1.47-1.12 1.96-1.49-2.1-11.32-8.81-21.07-12.43-31.9-1.03-3.45-3.34-6.29-4.7-9.59 4.5-1.88 9.41-1.86 14.15-2.58 1.48 0.42 3.01 0.76 4.58 0.55 5.88-0.61 11.4 2.1 17.22 2.26l0.19-1.95-0.85 0.19c0.39-1.27 0.79-2.53 1.15-3.8-0.28 1.66-0.34 3.35 0.05 5.01 4.16-0.89 8.49-1.01 12.65-0.04-0.66 2.85-2.4 5.22-3.48 7.89-2.66 9.22-6.42 18.08-9.83 27.04-0.68 1.93-1.37 3.91-1.43 5.99 0.79 1.19 2.14 2.29 1.73 3.92-0.52 4.65-0.87 9.33 0.01 13.96-0.46 2.07 0.85 6.09-1.87 6.59-0.07 1.73-0.25 3.44-0.34 5.17 0.28-0.6 0.84-1.81 1.11-2.41 0.25 0.03 0.74 0.08 0.99 0.1 0.16 4.15 0.57 8.28 0.59 12.44 4.0099 0.45 8.22 0.5 12.12-0.65 4.37-2.57 5.83-8.35 5.67-13.14-0.06-8.55 4.49-16.04 8.04-23.52 5.82-11.65 13.44-22.98 14.99-36.22 1.16-5.31 0.96-10.81 0.73-16.21-0.65-9.7-6.08-18.16-11.99-25.54-3.63-5.05-8.56-9.08-14.13-11.81-3.83-1.5-7.04-4.39-11.22-4.97-5.49-1.87-11.3-2.03-17.02-1.7-8.73-0.23-17.41 2.15-25.01 6.36-11.25 5.43-19.9 15.38-24.92 26.71 6.13-17.74 22.64-31.21 41.03-34.48 14.34-3.1 29.7 0.36 41.86 8.39 14.15 9.48 23.23 25.96 23.88 42.96 0.43 9.36-1.49 18.83-5.63 27.25-5.29 11.45-12.62 21.88-16.84 33.82-1.57 4.71-1.44 9.71-2.07 14.57-0.62 4.18-3.21 7.64-5.59 10.98 3.32 1.49 6.57 3.14 9.62 5.15-1.61-6.82-2.36-14.54 1.48-20.78 1.86-3.47 5.53-5.18 8.36-7.71 6.52-5.42 15.8-5.45 23.69-3.6-7.84-15.01-6.86-34.58 3.78-48 3.4099-4.68 8.4299-7.73 12.86-11.35-8.37-2.68-16.8-6.41-22.84-12.99-2.71-2.97-6.03-5.41-8.1299-8.88-1.01-1.28-1.41-3.19-3.11-3.75 0.83-0.29 2.1-1.02 2.69 0.12 0.17 0.35 0.49 1.05 0.65 1.41 0.01-2.55-1.6-4.64-1.28-7.22-0.5-5.81 2.13-11.1 4.62-16.14-1.93 0.97-2.63 3.12-3.51 4.92-2.08 4.46-2.81 9.66-1.22 14.4-0.88 0.66-1.97 0.91-2.94 1.31l1.37-0.71c-1.91-6.33-0.47-13.22 2.92-18.77-8.58 1.25-18.71 1.15-25.19-5.48-3-3.59-7.22-6.18-9.2-10.54-1.19-1.86-1.11-4.53-2.76-6.01-4.79 6.83-11.44 12.71-19.65 14.87-1.54 0.21-3.61 1.32-4.87 0.03-0.42-1.34 2.01-0.85 2.95-1.24 8.8799-1.79 16.23-8.16 20.88-15.74 0.76-1.14 0.5-2.59 0.72-3.88-5.3698 7.66-12.34 14.9-21.71 17.26m-74.41 2.44c2.65 6.18 9.49 8.24 15.35 10.13 4.11 1.48 8.54 0.33 12.36-1.47-3.77-0.09-7.6 0-11.25-1.09-5.94-1.44-11.12-4.75-16.46-7.57-0.49-0.62-0.49-0.62 0 0m110.34 2.66c5.53 4.77 13.37 5.16 20.3 4.36 1.73-0.32 3.95-0.25 4.88-2.12 0.51 0.57 1.02 1.14 1.5399 1.73l-1.7299-2.33 3.67 0.22c-2.04-1.04-4.34-0.73-6.46-0.21-7.34 1.62-15.3 1.62-22.2-1.65m25.28 16.04c2.9301-5.06 6-10.03 10.21-14.16-6.43 1.16-9.35 8.4-10.21 14.16m-106.12-5.91c-7.37 3.04-15.33 0.32-22.38-2.26 6.26 4.22 14.3 6.57 21.82 5.07 4.86-0.96 8.05-5.74 7.96-10.56-1.83 3.1-3.8 6.49-7.4 7.75m-26.12-2.29c5.01 7.75 9.73 15.85 11.94 24.89-0.76-7.6-4.11-14.66-7.79-21.25-0.76-1.83-2.58-2.68-4.15-3.64m7.21 21.09c-1.7 2.81 3.33 0.28 0 0m136.32 12.99l-0.16 0.22c4.1 2.4 8.1799 4.89 12.67 6.51 2.62 0.88 5.3099 2.49 8.1699 1.72-7.0099-2.52-14.28-4.51-20.68-8.45m-90.94 12.7c-0.02 1.29 0.23 2.54 0.76 3.73 2.78 6.47 5.46 12.99 8.41 19.39 2.67 6.29 6.12 12.43 6.91 19.33 1.2-0.47 2.41-0.93 3.64-1.37 0.63-5.87 0.49-11.8 0.33-17.68-1.4301-0.61-3.64-0.4-3.8701-2.41 2.16-1.56 4.83-0.97 7.31-1.1 2.3101 0.02 4.7401-0.53 6.94 0.52 0.6801 2.05-2.03 1.89-3.2 2.63-0.56 6.15-0.56 12.41 0.28 18.54 0.8 0.22 2.41 0.66 3.21 0.87 0.36-2.85 0.95-5.7 2.03-8.38 4.44-11.07 8.61-22.26 12.57-33.51-4.1-1.11-8.35-0.41-12.27 1 0 1.5 0.21 3.12-0.61 4.48-1.94 4.08-2.83 8.54-3.66 12.95 0.49-5.81 2.53-11.35 4.15-16.91-4.54-1.86-9.47-2.95-14.37-3.14-2.38-0.21-4.86 1.1-7.09-0.1-3.8299 0.37-7.6499 0.78-11.47 1.16m21.66 23.53c0.01 5.32 0.04 10.64 0.09 15.96 1.11-0.02 2.23-0.03 3.36-0.04-0.02-5.36-0.06-10.72 0.0099-16.07-1.1699 0.05-2.3199 0.1-3.4599 0.15m-85.72 3.38c5.37-0.78 10.81-0.85 16.2-0.22-0.13-0.47-0.4-1.4-0.54-1.86-3.7-0.13-7.4-0.88-11.1-0.48-1.62 0.67-3.06 1.68-4.56 2.56m17.53-1.46c-0.51 0.5-1.01 1.02-1.49 1.53 3.72 0.1 7.1 1.75 10.61 2.78-2.72-2.05-5.97-3.16-9.12-4.31m62.71 18.71c-0.29 3.6-1.86 7.9 0.78 10.96l-1.34 0.97c0.72-0.1 2.16-0.28 2.88-0.37l-0.44-2.32c1.52-1.38 1.48-3.56 2.45-5.25 2.61-1.92 5.78 1.04 6.4 3.6 0.39 0.6 0.82 1.19 1.28 1.76 1.08-0.15 2.17-0.21 3.29-0.18 0.18-2.81 0-5.64-0.83-8.33-4.48-2.38-9.71-2.03-14.47-0.84m77.47 3.67c1.11 4.54 2.22 10.66 7.1899 12.43-2.7199-3.96-4.9599-8.19-7.1899-12.43m-71.97 1.5c-2.27 1.33 0.2 6.08 2.45 4.22 2.8-1.69 0.16-7.39-2.45-4.22m4.64 31.7c1.66 0.55 3.37 0.12 5.03-0.29-0.34-7.24-0.2-14.49-0.59-21.72 0.46-2.48-2.2-2.71-3.74-3.63-1.19 8.46-0.79 17.1-0.7 25.64m-9.87-22.85c-0.66 6.34-0.03 12.71-0.23 19.07 0.21 1.2 0.47 2.4 0.71 3.61 0.6801-0.01 2.03-0.04 2.7-0.05 0.12-2.56 0.12-5.13 0.21-7.68 0.48 0.26 1.43 0.77 1.91 1.02 0.11 2.36-1.44 6.43 2.04 7.07-0.52 0.38-1.56 1.15-2.09 1.54 0.67-0.16 1.35-0.32 2.04-0.48 1.79-7.85 0.17-15.98 0.75-23.95-0.7599 0.09-2.29 0.26-3.05 0.35 0 4.76-0.09 9.53 0.1 14.29-0.6-0.7-1.19-1.4-1.77-2.09-0.36-4.32 0.3-8.7-0.44-12.97-0.72 0.07-2.16 0.21-2.88 0.27m54.69 1.56c8.02-0.98 16.23 0.02 23.89 2.54-0.91-1.26-1.65-2.64-2.77-3.71-6.87-1.85-14.64-2.18-21.12 1.17m2.22 4.02c-5.63 1.52-10.43 6.45-10.67 12.45 2.45-3.49 4.81-7.34 8.91-9.11 8.96-4.5 19.2-1.85 28.24 0.88-7.8999-4.46-17.58-6.74-26.48-4.22m-13.13 26.62c-0.41-4.76-1.83-9.53-0.88-14.32 0.39-3.73 2.47-6.9 4.13-10.16-7.09 5.88-5.88 16.65-3.25 24.48m-13.74-5.77c0.0601 0.78 0.1801 2.33 0.2401 3.11 4.91 2.01 9.54 4.72 13.66 8.07-0.63-1.51-1.07-3.1-1.89-4.51-3.5701-2.92-7.8001-4.87-12.01-6.67m-16.6 3.06c-0.1 1.68-0.16 3.36-0.2 5.05 3.09 0.01 6.22-0.13 9.22-0.96-0.21-1.25-0.43-2.51-0.6-3.76-2.81-0.15-5.62-0.24-8.42-0.33m-55.99 9.89c-2.2 0.97-3.42 3.2-4.99 4.9 9.83-4.44 19.91-8.47 30.44-10.92 0.1-0.67 0.31-2 0.41-2.66-8.84 2.2-17.51 5.05-25.86 8.68m54.25-0.81c2.87 0.08 5.84 0.02 8.57-1.04-2.77 0.16-6.51-1.44-8.57 1.04m-0.69 5.99c2.77 1.87 6.48 0.93 9.36-0.29-3.12-0.36-6.27-0.21-9.36 0.29m-0.1 7.04c2.98 1.22 6.71 1.11 9.56-0.49-3.2-0.28-6.42-0.14-9.56 0.49m3.31 7.27c1.14 0.7 3.92 0.79 4.45-0.56-1.24-0.49-3.97-0.96-4.45 0.56z"/>
		<path d="m623.58 147.72c12.81-6.71 28.95-4.73 40.74 3.24 15.72-10.3 38.87-6.46 50.62 8.15 2.22 2.53 3.21 5.84 4.89 8.67 9.95 1.16 19.84 5.32 26.46 13.04 6.48 7.54 8.58 19.12 3.53 27.96-2.81 5.67-8.2 9.33-13.67 12.12 2.56 8.94-0.56 18.92-7.67 24.87-10.72 9.09-26.59 9.86-39.18 4.46-13.83 15.37-40.18 13.39-53.97-1.04-10.46 3.88-22.45 2.95-32.31-2.19-7.61-3.91-14.24-10.57-16.46-19.01-1.63-5.95-0.91-12.44 1.98-17.89-4.92-5.38-7.9-12.74-7.0099-20.08 0.7-8.67 6.87-16.13 14.52-19.86 4.16-2.29 8.88-3.08 13.52-3.78 1.3099-8.01 6.6899-15.17 14.01-18.66m-0.78 11.04c-2.89 2.73-5.3 6.25-5.58 10.33-0.49 2.15 0.04 5.56-2.77 6.2-5.71 0.4-11.69 0.97-16.62 4.19-6.03 3.19-10.59 10.59-8.18 17.42 1.17 4.23 4.63 7.1 7.49 10.19 2.31 4.9-3.16 8.2-3.65 12.78-0.88 4.34 1.12 8.53 3.58 11.98 1.3 1.44 2.71 2.78 4.19 4.05 8.97 6.59 21.37 8.7 31.75 4.34 1.93-1 4.64-1.27 6.1 0.67 8.27 10.48 23.76 13.37 35.91 8.73 4.86-1.66 7.96-5.89 11.62-9.2 2.51-0.32 4.65 1.24 6.93 2.01 8.89 3.31 19.35 2.69 27.55-2.19 5.53-3.57 10.16-10.57 7.58-17.28-1.4-2.89-2.64-6.64-0.09-9.29 6.35-1.7 12.9-5.29 15.4-11.73 2.56-5.21 0.06-11.24-3.46-15.34-6.68-7.2-16.66-9.89-26.19-10.25-0.98-1.86-1.56-3.88-2.1-5.89-0.89-3.31-3.25-5.93-5.6-8.31-9.96-8.81-25.62-10.54-37.16-3.86-2.08 1.66-4.95 3.73-7.5 1.65-10.87-8.91-27.94-9.96-39.2-1.2z"/>
		<path d="m1066.4 188.65c-0.03-1.19 0.1-2.38 0.14-3.57 2.73 1.3 7.1899-0.24 8.92 2.76-3.03 0.14-6.08 0.23-9.06 0.81z"/>
		<path d="m1037.5 215.96c2.6-13.38 12.98-24.81 26.14-28.51 0.7799 0.47 1.5699 0.95 2.37 1.44-13.81 2.1-23.86 14.28-27.27 27.26-0.31-0.05-0.93-0.15-1.24-0.19z"/>
		<path d="m136 281c43.11-43.6 103.73-69.07 164.99-69.81 32.84-0.58 65.79 5.92 95.92 19.01 29.23 12.87 56.14 31.57 77.27 55.61 22.99 25.59 39.7 56.77 48.32 90.07 1.76 6.12-0.67 12.56 1.22 18.64 1.71 5.27 5.33 9.76 9.8701 12.89 16.69 12.24 34.35 23.19 50.35 36.37 9.31 7.88 18.53 16.58 23.82 27.78 2.71 6.39 4.63 13.94 1.64 20.57-4.56 10-16.03 14.34-21.05 24-2.92 5.52-2.55 12.41 0.61 17.75 4.38 8.34 12.92 14.01 16.02 23.07 1.69 5.54-2.77 10.1-6.67 13.29 2.67 3.46 6.98 5.64 8.68 9.81 1.54 4.91-2.67 8.73-4.04 13.07-2.29 7.04-2.65 14.96-0.06 21.97 3.62 9.29 11.84 15.5 17.14 23.7 2.8 4.02 3.0099 9.05 4.1899 13.67 2.2 8.99 2.59 18.67-0.36 27.55-1.94 6.24-5.51 11.78-8.62 17.48-1.77 3.24-5.25 4.91-8.51 6.26-9.75 3.87-20.41 3.95-30.72 4.74-4.83 0.29-9.41 1.95-14.09 2.99-5.24 1.38-10.72 0.85-16.03 1.71-4.41 0.43-8.4 2.76-12.87 2.87-6.87 0.27-14.21 1.79-19.26 6.79-3.91 3.63-5.07 9.1-5.71 14.17-1.25 10.49-0.01 21.04 0.84 31.5 0.61 7.19 3.33 14.19 2.51 21.48-1.25 18.15-5.27 35.95-7.95 53.91-1.68 10.97-2.43 22.04-3.36 33.09h-294.6c5.73-25.52 7.51-51.88 6.15-77.97-1.35-23.46-5.48-47.04-14.83-68.71-4.35-10.81-6.37-22.62-12.61-32.61-9.01-15.41-21.69-28.4-35.68-39.35-2.74-2.24-5.66-4.34-7.75-7.24-5.01-6.58-10.1-13.11-15.14-19.67-6.13-7.84-8.84-17.63-14.04-26.02-5.25-8.38-10.57-16.72-15.84-25.09-25.38-43.78-35.25-96.21-27.75-146.25 1.6-15.15 3.13-30.38 7.04-45.15 10.05-40.61 31.43-78.32 60.96-107.94z"/>
		<path d="m506.46 226.7c2.94-5.37 8.15-9.82 14.39-10.53 7.41-1.53 14.9 2.31 19.3 8.19 4.28-1.23 8.96-1.61 13.13 0.25 8.12 2.94 13.5 11.5 13.13 20.07 6.1201 3.18 10.67 9.28 11.41 16.2 1.46 9.86-5.26 19.91-14.84 22.51-1.1 5.46-3.55 10.97-8.4 14.09-7.04 5.65-17.51 4.72-24.34-0.8-5.08 3.18-11.56 4.37-17.23 2.13-5.4-1.79-9.45-6.22-11.87-11.24-9.21 0.9-18.22-5.84-20.52-14.71-2.07-6.81-0.05-14.29 4.33-19.76-2.12-7.72 0.38-16.5 6.53-21.69 4.0001-3.73 9.6701-4.88 14.98-4.71m14.06-2.04c-4.4 1.12-7.57 4.73-9.06 8.89-0.97 2.8-4.23 2.08-6.46 1.76-6.4-1.12-13.19 4.21-13.29 10.76-0.21 2.77 1.09 5.32 1.61 7.98-0.51 3.39-4 5.07-5.14 8.18-3.21 7.06 2.38 15.82 9.85 16.84 2.57 0.5 5.26-0.89 7.74 0.21 2.38 1.92 2.26 5.42 4.33 7.6 3.68 4.88 11.37 6.27 16.35 2.58 1.7-0.96 3.38-3.16 5.56-2.2 2.47 1.36 4.19 3.86 6.89 4.87 5.59 2.29 12.82-0.21 15.42-5.78 1.76-2.76 0.41-6.27 2-9.07 0.94-1.64 2.93-1.72 4.57-2.07 4.99-0.81 9.27-5.24 9.6-10.34 0.3-5.46-3.25-10.9-8.4-12.78-1.6801-0.74-4.26-1.82-3.52-4.14 2.03-7.69-4.38-16.58-12.52-16.21-2.85-0.14-5.27 1.59-8 1.96-2.46-0.46-3.54-2.98-4.98-4.73-2.59-4.08-8.05-5.45-12.55-4.31z"/>
		<path d="m919.46 238.14c0.5099-0.76 1.04-1.51 1.58-2.25 1.23 7.41 1.18 14.88 0.1 22.3-0.76 0.08-1.5 0.17-2.22 0.27 1.96-6.54 1.75-13.65 0.54-20.32z"/>
		<path d="m924.72 261.86c0.63-1.16 1.32-1.35 2.08-0.58-0.2 0.94-0.59 2.8-0.79 3.73-1.51 0.54-1.72-2.25-1.29-3.15z"/>
		<path d="m605.94 569.96c4.03-5.32 10.05-9.69 17.02-9.44 1.42 1.77 2.86 3.53 4.32 5.28 5.5699-1.73 11.97-1.59 16.87 1.89 6.2 4.3 9.62 11.28 13.93 17.26 20.76 30.86 41.99 61.39 62.62 92.34-1.23 0.61-2.42 1.31-3.74 1.68-4.66-0.86-8.38-4.1899-10.99-7.97-18.69-26.31-36.96-52.92-56.12-78.89-5.23-6.68-9.86-14.01-16.63-19.29 27.89 38 54.32 77.03 81.59 115.47 3.18-1.5 6.57-2.44 10.02-3.04 5.82-0.98 11.01-3.94 16.63-5.59 18.9-5.98 38.77-8.12 58.5-9.06 9.1-0.3 18.24-0.62 27.34-0.11 9.31 2.09 17.11 8.08 24.98 13.18 12.16 8.35 23.52 17.78 34.8 27.27 3.06 2.42 6.86 3.64 10.1 5.82 5.6 3.7 11.62 6.75 16.97 10.83 7.0099 4.89 11.2 12.87 13.54 20.91 1.49 4.46 3.93 8.67 4.18 13.47 3.63 38.28 6.54 76.63 8.59 115.03h-166.83c-6.12-12.54-11.14-25.76-19.6-37-6.67-9.84-15.13-18.23-22.29-27.68-2.55-3.78-7.95-3.7-10.62-7.36-2.27-2.34-2.83-5.62-2.47-8.7401-4.41-1.14-9.26-3.03-11.03-7.6299-2-4.53 1.36-8.85 4.28-12.02-8.28-0.66-17.52-5.84-19.12-14.58-0.61-5.82 4.73-9.53 8.84-12.55-0.72-4.75-0.6-9.67 1.29-14.14-8.1-12.9-16.64-25.5-24.82-38.33-20.02-31.54-39.45-63.45-58.52-95.57-4.93-8.78-10.54-17.24-14.63-26.45-1.1601-1.7401-0.0301-3.5401 0.9999-4.9901m196.31 205c-3.6 3.16-7.41 6.09-11.51 8.58 5.05 6.47 10.78 12.37 16.77 17.98 10.64-4.22 21.47-8.56 30.45-15.84-0.93-0.75-1.85-1.49-2.77-2.23-11.59 1.2-22.71-3.6-32.94-8.49z"/>
	</g>
</g>
</svg>
